<?xml version="1.0" standalone="no"?>
<!DOCTYPE svg PUBLIC "-//W3C//DTD SVG 20010904//EN"
 "http://www.w3.org/TR/2001/REC-SVG-20010904/DTD/svg10.dtd">
<svg version="1.0" xmlns="http://www.w3.org/2000/svg"
 width="689.000000pt" height="886.000000pt" viewBox="0 0 689.000000 886.000000"
 preserveAspectRatio="xMidYMid meet">

<g transform="translate(0.000000,886.000000) scale(0.100000,-0.100000)"
fill="#000000" stroke="none">
<path d="M3275 8203 c-109 -15 -204 -41 -295 -81 -121 -53 -370 -189 -408
-223 -15 -13 -47 -39 -72 -56 -45 -33 -200 -200 -200 -216 0 -5 16 0 36 12 19
12 44 21 56 21 15 0 18 4 14 16 -7 18 19 54 39 54 10 0 187 133 223 167 7 7
20 13 28 13 8 0 14 4 14 8 0 5 21 23 48 42 33 24 57 33 82 33 19 -1 42 3 50 8
11 6 7 8 -15 9 l-30 0 30 20 c17 11 44 20 61 20 39 0 94 27 94 46 0 8 7 14 15
14 8 0 15 -4 15 -8 0 -4 16 -6 35 -4 19 2 41 -1 49 -7 9 -8 22 -8 46 1 28 9
35 8 45 -5 7 -10 20 -17 29 -17 9 0 16 -4 16 -10 0 -5 18 -10 40 -10 33 0 40
-3 40 -20 0 -23 -10 -26 -28 -8 -9 9 -12 9 -13 -2 0 -8 -2 -23 -4 -32 -2 -10
3 -18 11 -18 10 0 14 -12 14 -37 0 -21 5 -45 10 -53 5 -8 10 -11 10 -7 0 4 9
3 19 -3 25 -13 42 8 17 22 -20 11 -21 45 -1 64 18 18 35 10 35 -17 0 -12 7
-19 19 -19 28 0 47 -26 31 -45 -9 -10 -9 -15 -1 -15 6 0 11 -13 11 -29 0 -17
4 -32 9 -36 5 -3 12 -18 16 -33 5 -25 10 -28 36 -24 16 2 32 8 35 13 3 5 12 9
20 9 11 0 13 -6 9 -20 -5 -15 3 -23 37 -41 24 -12 50 -27 58 -34 8 -7 25 -15
38 -18 18 -4 26 0 34 19 9 18 16 23 32 18 12 -4 24 -12 28 -18 5 -7 8 -7 8 3
0 8 6 11 16 7 8 -3 25 -1 36 5 14 8 23 8 31 0 8 -8 6 -11 -6 -11 -9 0 -17 -6
-17 -14 0 -23 18 -28 28 -9 9 14 13 15 26 4 9 -7 13 -18 9 -24 -13 -22 -10
-47 9 -64 21 -19 24 -39 6 -45 -8 -3 -11 -21 -9 -50 2 -36 -2 -51 -18 -67 -17
-17 -18 -21 -6 -21 13 0 12 -4 -5 -22 -11 -12 -20 -27 -20 -34 0 -7 -5 -14
-11 -16 -12 -4 -30 -76 -20 -80 4 -2 5 -22 3 -46 -4 -36 -7 -42 -23 -37 -17 6
-18 3 -9 -19 5 -14 7 -39 4 -55 -5 -25 -2 -30 24 -39 17 -6 33 -8 36 -5 3 3
12 0 21 -7 18 -15 20 -57 3 -62 -6 -2 14 -30 46 -61 49 -48 57 -61 52 -82 -5
-21 -3 -25 14 -25 13 0 24 -10 30 -26 12 -30 13 -45 3 -42 -5 1 -18 -1 -31 -6
-17 -6 -21 -13 -16 -30 4 -17 -1 -25 -21 -34 -14 -7 -34 -12 -44 -12 -10 0
-24 -7 -31 -15 -7 -8 -38 -22 -69 -31 -31 -8 -67 -21 -81 -28 -14 -7 -38 -16
-54 -20 -15 -4 -35 -14 -44 -22 -16 -17 -72 -12 -129 12 -26 10 -33 10 -33 0
0 -7 -6 -21 -14 -32 -15 -19 -15 -19 -29 0 -13 18 -15 18 -38 3 -31 -22 -68
-21 -93 1 -12 11 -52 24 -91 31 -38 7 -83 16 -100 21 -119 36 -166 40 -457 40
-161 -1 -308 -2 -326 -4 -40 -3 -55 -16 -19 -16 33 0 36 -15 5 -17 -13 -1 -32
-13 -44 -26 -28 -33 -56 -47 -93 -47 -25 0 -44 -16 -130 -116 -56 -63 -101
-122 -101 -131 0 -8 -12 -42 -27 -75 -24 -54 -25 -61 -11 -75 18 -17 38 -10
38 13 0 8 8 27 18 42 10 15 30 44 44 65 40 59 136 137 173 138 86 3 115 16
115 50 0 12 -10 21 -27 25 -40 10 -58 25 -41 35 7 5 23 9 35 9 29 0 43 -44 43
-134 0 -115 19 -280 40 -348 25 -82 71 -127 169 -167 86 -36 214 -58 384 -68
125 -7 124 -12 -5 -28 -46 -6 -68 -25 -30 -25 11 0 34 -7 51 -16 28 -14 32
-20 26 -43 -3 -14 -7 -34 -9 -44 -1 -10 -7 -22 -13 -25 -6 -4 -14 -18 -18 -32
-4 -14 -13 -32 -20 -40 -7 -8 -15 -31 -19 -51 -4 -21 -13 -43 -21 -49 -15 -12
-18 -70 -4 -70 17 0 129 120 129 138 0 12 4 23 9 27 5 3 13 20 16 37 9 41 56
128 101 186 19 25 34 51 34 58 0 8 6 14 13 14 7 0 30 25 52 56 22 31 61 81 86
111 25 30 61 81 80 112 18 31 48 72 66 91 29 32 33 33 50 18 10 -8 23 -14 29
-11 18 6 24 -20 34 -147 5 -65 12 -125 16 -134 3 -9 3 -24 -1 -33 -10 -22 -6
-62 7 -86 7 -15 5 -20 -11 -24 -12 -3 -22 -17 -27 -37 -3 -17 -12 -42 -19 -56
-7 -14 -26 -56 -44 -94 -26 -57 -35 -67 -52 -63 -19 5 -19 5 -1 -26 11 -18 22
-44 26 -60 8 -33 40 -67 64 -67 26 0 41 -13 61 -51 14 -25 16 -39 8 -56 -7
-16 -5 -27 7 -44 20 -28 21 -63 2 -78 -7 -6 -35 -14 -62 -17 -27 -3 -62 -11
-77 -16 -26 -10 -28 -14 -22 -42 4 -17 7 -40 6 -51 0 -11 -1 -35 -1 -52 1 -27
-3 -33 -20 -33 -13 0 -20 7 -20 20 0 22 -28 28 -46 10 -8 -8 -19 -7 -37 1 -15
7 -34 8 -44 4 -10 -5 -24 -7 -31 -6 -7 1 -15 -4 -18 -12 -3 -9 -26 -17 -56
-21 -52 -7 -97 -29 -80 -40 5 -3 31 -8 58 -11 27 -3 78 -11 114 -16 36 -6 92
-14 125 -19 135 -20 173 -29 203 -44 18 -9 32 -21 32 -25 0 -19 -12 -41 -23
-41 -5 0 -32 -22 -58 -50 -26 -27 -53 -50 -58 -50 -6 0 -16 -9 -23 -20 -7 -11
-24 -20 -37 -20 -20 0 -22 3 -13 12 15 15 15 29 -2 50 -12 17 -16 17 -45 2
-37 -18 -37 -21 -9 -46 33 -28 8 -40 -74 -36 -64 3 -68 2 -68 -18 0 -17 -9
-23 -42 -30 -87 -18 -49 -78 52 -82 33 -1 72 -7 86 -12 14 -6 42 -10 62 -11
59 0 107 -21 106 -45 0 -12 -7 -29 -17 -38 -9 -10 -17 -30 -17 -46 0 -35 -19
-50 -27 -21 -8 31 -77 24 -88 -9 -6 -19 -52 -33 -61 -19 -8 14 -34 11 -34 -4
0 -7 -14 -23 -30 -37 -25 -20 -29 -30 -24 -52 5 -27 -8 -39 -21 -19 -3 6 -19
17 -36 25 -29 14 -30 14 -39 -9 -14 -36 -42 -40 -190 -31 -41 2 -83 5 -94 5
-15 1 -16 4 -6 16 7 9 10 25 6 41 -6 24 -9 25 -29 12 -26 -16 -64 -4 -73 24
-3 10 -15 18 -26 18 -11 0 -29 9 -38 20 -11 13 -21 17 -25 10 -8 -13 3 -30 21
-30 17 0 19 -31 2 -48 -16 -16 -26 -15 -24 1 0 6 -3 13 -9 15 -14 3 -19 -98
-6 -111 6 -6 11 -21 11 -34 0 -12 6 -27 13 -32 6 -6 29 -24 50 -42 20 -17 37
-28 37 -25 0 4 18 -3 40 -14 22 -11 40 -26 40 -34 0 -7 11 -18 24 -25 13 -7
30 -28 39 -47 9 -19 21 -34 25 -34 5 0 14 -11 20 -24 6 -13 23 -30 39 -38 16
-7 29 -23 31 -35 2 -12 12 -25 23 -28 11 -4 18 -12 16 -19 -3 -7 -2 -17 1 -22
12 -16 72 -45 72 -35 0 6 7 8 15 5 8 -4 15 -14 15 -23 1 -22 29 -55 66 -76 36
-20 49 -39 59 -83 4 -21 3 -32 -4 -32 -16 0 -13 -29 5 -48 15 -14 14 -16 -7
-25 l-24 -8 23 -19 c28 -23 29 -44 2 -37 -11 3 -20 1 -20 -3 0 -5 9 -12 20
-15 11 -3 20 -11 20 -17 0 -6 9 -8 20 -5 14 3 20 0 20 -10 0 -11 6 -14 21 -10
17 4 19 3 10 -6 -6 -6 -11 -20 -11 -30 0 -10 -14 -32 -31 -48 -17 -16 -28 -33
-24 -39 5 -8 11 -8 20 0 9 8 14 5 18 -11 4 -15 2 -19 -9 -15 -8 3 -14 1 -14
-4 0 -6 7 -10 15 -10 8 0 15 -7 15 -15 0 -8 8 -15 18 -16 13 0 12 -3 -5 -11
-26 -12 -27 -16 -13 -38 9 -13 13 -11 30 10 l20 25 0 -32 c0 -17 -5 -35 -11
-38 -6 -4 -8 -13 -5 -21 3 -8 1 -14 -4 -14 -13 0 -13 -27 1 -35 15 -10 22 1
22 35 0 18 6 30 14 30 7 0 13 -7 13 -16 0 -14 3 -14 15 -4 18 15 20 -1 3 -18
-8 -8 -8 -12 -1 -12 6 0 14 -16 17 -35 5 -26 15 -39 39 -52 18 -9 35 -16 39
-15 4 1 5 -5 2 -13 -4 -9 1 -17 12 -21 55 -17 57 -19 43 -35 -25 -25 -42 -49
-36 -49 4 0 15 9 26 21 23 25 51 41 197 112 61 30 115 60 118 66 4 7 24 23 44
36 21 13 78 58 127 100 164 137 224 185 232 185 11 0 43 37 43 50 0 6 5 10 10
10 6 0 8 -11 4 -27 -6 -24 -5 -26 8 -15 13 10 16 9 21 -10 l6 -22 24 26 c13
14 34 42 46 62 26 42 36 45 45 14 9 -34 8 -38 -11 -39 -10 -1 -3 -4 14 -8 32
-6 32 -7 19 -32 -13 -25 -12 -28 10 -38 16 -7 24 -19 24 -35 0 -13 7 -26 15
-30 21 -8 19 -32 -4 -48 -14 -10 -17 -18 -11 -28 5 -8 5 -17 1 -20 -4 -3 -11
-17 -14 -32 -6 -22 -3 -29 22 -41 17 -8 33 -11 38 -6 5 5 25 1 47 -11 38 -19
39 -19 63 0 13 10 42 21 64 25 42 7 79 35 79 58 0 7 5 18 11 24 16 16 64 -9
74 -39 7 -20 9 -18 12 16 3 21 1 46 -3 55 -4 9 -6 99 -5 201 2 102 3 195 2
207 0 13 7 24 19 28 26 8 26 21 0 28 -11 3 -20 10 -20 17 0 6 5 8 10 5 6 -3
10 3 10 14 0 11 -5 23 -11 26 -5 4 -8 12 -6 18 2 7 -2 23 -9 37 -7 14 -18 44
-24 67 -9 35 -65 117 -117 171 -7 7 -13 32 -13 55 -1 49 -61 236 -87 268 -6 8
-18 28 -26 45 -9 17 -55 71 -102 119 -51 54 -85 97 -85 109 0 12 12 41 26 66
63 108 115 224 154 340 23 69 47 131 52 138 6 6 29 12 52 12 68 1 106 46 106
125 0 39 8 66 36 118 32 60 79 179 150 377 15 41 23 87 23 125 0 65 -19 167
-37 202 -20 37 -71 65 -129 72 l-56 6 -13 45 c-16 52 -6 133 21 174 33 50 49
189 49 416 0 184 -3 230 -22 320 -25 114 -55 218 -77 261 -8 15 -20 44 -28 65
-54 157 -308 464 -507 613 -257 192 -426 273 -660 317 -69 12 -281 17 -355 7z
m-85 -64 c0 -5 -4 -7 -10 -4 -5 3 -10 1 -10 -4 0 -6 -9 -11 -20 -11 -11 0 -20
4 -20 9 0 8 10 12 53 20 4 0 7 -4 7 -10z m140 -19 c8 -5 11 -12 8 -16 -10 -9
-38 3 -38 16 0 12 10 13 30 0z m80 -45 c0 -9 6 -12 15 -9 8 4 15 2 15 -4 0
-11 -18 -11 -37 1 -15 10 -17 27 -3 27 6 0 10 -7 10 -15z m-24 -63 c-11 -10
-15 4 -8 28 l7 25 3 -23 c2 -13 1 -26 -2 -30z m-614 -1474 c7 -13 11 -31 10
-40 -4 -24 29 -58 56 -58 15 0 26 -7 29 -19 3 -11 13 -21 24 -23 34 -5 5 -28
-57 -44 -32 -8 -63 -19 -68 -25 -6 -5 -21 -9 -34 -9 -23 0 -44 -15 -142 -101
-32 -28 -33 -32 -18 -43 12 -9 40 -12 86 -8 56 3 75 0 107 -17 22 -12 53 -21
70 -21 56 0 135 -13 135 -21 0 -5 -9 -9 -20 -9 -10 0 -41 -5 -69 -11 -37 -8
-50 -16 -55 -32 -4 -15 -8 -18 -14 -10 -6 9 -11 7 -20 -7 -7 -11 -11 -20 -10
-20 2 -1 35 -6 75 -13 70 -13 113 -8 113 13 0 5 11 10 24 10 14 0 28 5 31 10
4 7 13 7 25 0 15 -8 26 -4 57 22 21 18 41 37 45 43 39 59 106 139 113 137 6
-1 12 14 15 35 4 33 9 39 35 43 24 4 31 11 33 33 2 15 -1 27 -6 27 -5 0 -12 9
-15 20 -7 26 5 26 28 0 42 -46 21 -207 -49 -379 -35 -87 -107 -184 -151 -206
-82 -38 -247 -42 -415 -9 -267 54 -321 127 -319 433 0 69 0 136 0 148 -2 64
61 156 113 166 11 2 67 5 123 6 96 1 103 0 115 -21z m671 -155 c-3 -24 -9 -40
-14 -37 -11 6 -12 78 -2 87 14 15 22 -9 16 -50z m-393 -99 c0 -13 -4 -24 -10
-24 -5 0 -10 14 -10 31 0 17 4 28 10 24 6 -3 10 -17 10 -31z m410 -20 c9 -21
6 -30 -12 -50 -13 -13 -27 -24 -32 -24 -12 0 0 68 15 86 16 19 18 18 29 -12z
m1210 -49 c0 -113 -56 -338 -111 -446 -36 -72 -119 -99 -303 -99 -126 0 -282
23 -306 45 -9 8 -22 15 -28 15 -6 0 -10 9 -9 20 2 25 14 26 20 3 3 -10 4 11 3
47 -2 62 0 66 33 98 19 17 36 32 38 32 2 0 20 -8 41 -19 70 -36 106 -41 170
-23 57 15 60 15 89 -6 34 -24 76 -20 66 6 -5 11 -3 13 6 7 9 -5 11 -20 8 -43
-8 -45 7 -72 39 -72 15 0 23 -4 18 -11 -3 -6 -17 -8 -31 -4 -18 4 -24 2 -20
-7 2 -8 17 -12 36 -10 41 3 40 -15 -1 -27 -18 -5 -26 -10 -18 -10 43 -3 120
39 120 64 0 4 11 21 23 38 44 59 78 189 90 340 10 131 27 169 27 62z m-1811
-16 c18 -22 30 -43 27 -46 -7 -7 -85 25 -106 44 -13 13 -13 16 4 29 29 21 38
18 75 -27z m189 -4 c-2 -1 -14 -6 -27 -10 l-23 -7 23 32 c22 30 24 31 27 10 2
-12 2 -23 0 -25z m958 -4 c1 -28 9 -47 21 -56 16 -13 16 -14 1 -15 -24 0 -71
19 -80 33 -13 21 -9 46 13 68 29 29 42 20 45 -30z m79 -30 c-10 -16 -25 -3
-25 22 0 20 1 20 16 5 9 -9 13 -21 9 -27z m-900 -370 c3 -5 1 -12 -5 -16 -5
-3 -10 1 -10 9 0 18 6 21 15 7z m889 -220 c67 -18 105 -46 106 -80 0 -10 3
-11 14 -2 21 18 44 -14 28 -39 -10 -16 -8 -21 6 -29 15 -10 15 -11 -5 -17 -17
-5 -23 -14 -23 -35 0 -16 -4 -29 -8 -29 -11 0 -43 -56 -35 -63 3 -4 1 -12 -4
-19 -6 -7 -13 -30 -17 -50 -8 -42 -23 -50 -28 -16 -4 31 -22 33 -38 4 -12 -24
-14 -24 -34 -8 -20 14 -22 24 -19 96 1 45 4 96 6 115 2 20 -4 50 -16 74 -26
54 -35 117 -16 117 8 0 45 -9 83 -19z m486 -2260 c0 -10 -7 -24 -16 -32 -9 -7
-14 -22 -11 -36 2 -13 0 -26 -4 -29 -5 -3 -9 2 -9 10 0 9 -4 16 -10 16 -19 0
-9 37 23 88 11 16 27 6 27 -17z m-1235 -41 c-3 -5 -10 -10 -16 -10 -5 0 -9 5
-9 10 0 6 7 10 16 10 8 0 12 -4 9 -10z m1075 -86 c0 -8 -4 -12 -10 -9 -5 3
-10 10 -10 16 0 5 5 9 10 9 6 0 10 -7 10 -16z"/>
<path d="M4250 5825 c0 -9 7 -18 15 -21 8 -4 15 -15 15 -25 0 -14 7 -19 25
-19 14 0 25 4 25 10 0 5 8 9 18 7 18 -2 22 3 22 29 0 12 -6 15 -20 10 -11 -3
-29 -9 -40 -12 -16 -5 -20 -2 -20 15 0 14 -6 21 -20 21 -11 0 -20 -7 -20 -15z"/>
<path d="M3224 8025 c-6 -15 2 -35 15 -35 5 0 16 11 25 25 16 24 16 25 -9 25
-14 0 -28 -7 -31 -15z"/>
<path d="M2965 7990 c-7 -12 2 -30 16 -30 12 0 12 27 0 35 -5 3 -12 1 -16 -5z"/>
<path d="M3136 7970 c18 -35 29 -38 44 -10 9 17 8 20 -9 20 -11 0 -23 5 -26
10 -15 24 -22 7 -9 -20z"/>
<path d="M3252 7978 c6 -18 28 -21 28 -4 0 9 -7 16 -16 16 -9 0 -14 -5 -12
-12z"/>
<path d="M3287 7864 c-11 -11 5 -34 24 -34 23 0 25 25 3 34 -19 7 -19 7 -27 0z"/>
<path d="M3375 7810 c3 -5 8 -10 11 -10 2 0 4 5 4 10 0 6 -5 10 -11 10 -5 0
-7 -4 -4 -10z"/>
<path d="M3405 7810 c-3 -5 -1 -10 4 -10 6 0 11 5 11 10 0 6 -2 10 -4 10 -3 0
-8 -4 -11 -10z"/>
<path d="M2260 7595 c-20 -24 -6 -28 15 -5 10 11 13 20 8 20 -6 0 -16 -7 -23
-15z"/>
<path d="M3818 7269 c-17 -18 -17 -19 10 -19 35 0 45 9 31 27 -14 17 -20 16
-41 -8z"/>
<path d="M3853 7233 c-7 -3 -13 -13 -13 -23 0 -11 -7 -23 -16 -28 -11 -6 -14
-16 -9 -31 7 -24 28 -18 23 7 -2 10 5 25 15 34 20 18 20 48 0 41z"/>
<path d="M3890 7011 c0 -5 7 -14 15 -21 12 -10 15 -10 15 3 0 8 -7 17 -15 21
-8 3 -15 2 -15 -3z"/>
<path d="M1813 6009 c-28 -10 -37 -67 -31 -194 3 -71 8 -99 20 -112 16 -15 17
-15 12 4 -8 30 34 234 51 253 30 33 -6 66 -52 49z"/>
<path d="M1984 5705 c-4 -11 -14 -24 -21 -28 -17 -10 -9 -80 13 -112 8 -11 14
-29 14 -42 0 -12 5 -25 10 -28 13 -8 13 194 0 215 -7 12 -10 11 -16 -5z m-7
-77 c-3 -8 -6 -5 -6 6 -1 11 2 17 5 13 3 -3 4 -12 1 -19z"/>
<path d="M3252 5538 c-30 -22 -52 -67 -52 -110 0 -15 9 -18 48 -17 26 0 76 8
112 17 58 15 65 20 68 44 3 22 -5 33 -39 57 -51 37 -92 40 -137 9z"/>
<path d="M2968 5053 c-9 -9 -32 -17 -52 -18 -26 -2 -43 -12 -70 -41 -20 -22
-36 -46 -36 -55 0 -9 -3 -19 -7 -23 -4 -4 -8 -15 -8 -24 0 -9 -10 -21 -22 -27
-25 -11 -29 -30 -24 -127 3 -51 0 -60 -23 -81 -23 -21 -24 -26 -11 -37 21 -17
68 3 103 45 15 18 41 40 57 50 17 10 45 34 62 52 26 27 38 32 58 27 20 -5 26
-2 34 19 6 14 19 28 31 32 13 4 19 12 16 20 -7 18 17 65 49 95 25 24 36 51 13
32 -7 -5 -24 -13 -38 -17 -14 -4 -41 -18 -60 -31 -74 -51 -100 -22 -59 64 23
47 15 74 -13 45z"/>
<path d="M2225 4294 c-25 -26 -45 -54 -45 -62 0 -9 -7 -13 -19 -9 -27 7 -33
-40 -37 -283 -3 -213 3 -340 16 -340 5 0 6 35 3 79 -4 47 -1 86 5 97 13 22 11
26 41 -94 12 -45 21 -92 21 -103 0 -11 7 -33 15 -49 9 -17 18 -61 20 -100 3
-38 9 -78 14 -87 5 -10 22 -45 37 -77 15 -33 41 -76 59 -95 35 -40 95 -144 95
-167 0 -8 6 -14 14 -14 8 0 16 -4 18 -9 4 -12 132 -108 170 -127 16 -8 33 -12
36 -8 4 4 1 9 -5 11 -7 3 -13 11 -13 19 0 8 -9 14 -20 14 -11 0 -20 5 -20 11
0 5 5 7 10 4 6 -4 10 7 10 24 0 20 -5 31 -14 31 -19 0 -66 60 -59 75 2 7 -7
22 -21 33 -14 11 -26 26 -26 34 0 8 -11 28 -25 44 -14 16 -25 36 -25 45 0 9
-7 22 -15 29 -8 7 -15 28 -15 47 0 27 -3 34 -15 29 -11 -4 -15 2 -15 24 0 33
-16 49 -23 23 -3 -12 -5 -10 -6 7 0 14 -7 34 -14 45 -32 48 -40 114 -48 365
-4 140 -12 302 -18 360 -6 58 -12 129 -13 159 -2 31 -8 56 -15 58 -7 3 -33
-17 -58 -43z"/>
<path d="M4975 3620 c-12 -20 39 -38 90 -31 l50 7 -54 17 c-63 20 -77 21 -86
7z"/>
<path d="M5190 3552 c0 -7 -33 -9 -93 -7 -102 4 -129 -3 -108 -29 7 -8 10 -20
6 -26 -4 -6 -2 -17 4 -24 8 -9 5 -24 -10 -55 -16 -34 -19 -53 -13 -101 5 -43
11 -60 21 -60 11 0 13 7 9 25 -4 14 -2 25 4 25 5 0 10 -11 10 -25 0 -14 1 -28
3 -32 1 -5 -8 -9 -20 -11 -24 -3 -37 -27 -26 -45 4 -7 8 -37 9 -67 1 -52 8
-96 21 -130 11 -27 20 42 15 110 -3 43 -1 62 5 55 14 -14 24 -113 12 -120 -12
-8 -12 -75 1 -75 6 0 10 10 10 23 0 41 15 48 28 14 8 -18 20 -44 28 -59 8 -14
14 -31 14 -38 0 -20 111 -242 156 -313 42 -64 43 -68 27 -87 -22 -25 -35 -25
-103 0 -30 11 -64 20 -76 20 -21 0 -147 37 -292 86 -88 30 -190 76 -222 102
-14 10 -47 31 -75 46 -27 16 -59 36 -70 45 -11 10 -51 35 -90 56 -38 21 -73
43 -76 48 -4 5 -14 -3 -22 -19 -34 -66 -208 -204 -257 -204 -5 0 -33 -11 -61
-25 -29 -13 -61 -25 -73 -25 -45 -2 -92 -7 -106 -13 -8 -3 -31 -8 -50 -11 -88
-15 -217 -97 -354 -226 -176 -165 -227 -226 -240 -287 -4 -18 -12 -35 -17 -38
-5 -4 -9 -18 -9 -33 1 -22 4 -19 17 18 8 25 21 49 29 53 8 4 14 14 14 22 0 11
8 13 33 8 39 -7 45 -12 29 -22 -7 -4 -14 -16 -16 -27 -2 -11 -11 -37 -20 -57
-8 -21 -12 -45 -9 -53 4 -10 -5 -24 -23 -39 -36 -29 -25 -44 35 -49 l43 -4 -6
55 c-4 30 -4 76 0 103 5 38 12 50 35 64 16 9 28 22 26 28 -1 6 4 13 12 16 10
3 12 0 8 -11 -4 -12 3 -18 26 -23 17 -3 41 -13 53 -20 27 -19 46 -78 33 -111
-13 -34 -12 -35 11 -23 12 7 17 16 13 27 -5 12 -3 14 7 8 10 -6 12 0 8 24 -5
37 4 48 22 26 11 -13 17 -103 11 -165 -2 -21 19 -163 25 -169 2 -3 3 44 2 105
-1 64 3 128 11 154 7 25 15 57 18 72 3 15 8 26 12 23 4 -2 20 2 35 10 15 8 39
16 54 17 15 2 32 8 37 14 11 13 65 25 107 25 15 0 30 4 33 8 3 5 14 7 25 4 11
-3 20 0 20 6 0 6 10 11 23 11 13 0 28 5 34 11 6 6 17 8 24 3 20 -12 64 -9 61
4 -1 7 8 12 20 13 13 0 76 3 142 5 65 2 124 8 131 14 6 5 15 7 18 3 4 -3 19 0
34 8 20 11 27 11 30 2 3 -7 13 -13 24 -13 34 0 99 24 99 37 0 7 7 13 15 13 14
0 19 -11 16 -37 -3 -18 35 -16 53 3 21 20 21 48 1 40 -26 -9 -17 5 27 46 36
33 91 53 86 31 0 -5 2 -15 6 -24 6 -14 11 -12 37 12 25 23 36 27 62 22 57 -11
79 -22 73 -38 -6 -17 20 -20 44 -6 8 6 18 7 24 4 5 -4 35 -8 65 -9 79 -5 99
-11 107 -36 3 -12 13 -28 20 -35 11 -11 15 -10 24 8 10 18 14 19 26 7 8 -8 19
-41 24 -73 12 -71 25 -89 35 -46 7 34 38 43 49 16 5 -13 10 -14 27 -5 11 7 31
9 43 6 11 -3 28 -1 36 4 9 5 19 5 27 -2 7 -5 38 -8 70 -6 42 2 61 -1 69 -11 7
-9 17 -12 30 -6 10 4 27 7 37 6 10 -1 17 4 17 13 0 9 5 16 10 16 13 0 13 57 1
65 -5 3 -13 0 -17 -6 -3 -6 0 -15 7 -20 11 -6 11 -11 2 -20 -10 -10 -15 -6
-23 15 -5 15 -10 31 -10 36 0 5 -12 18 -27 29 -16 12 -22 20 -14 19 7 -2 16 3
18 10 3 6 0 12 -7 12 -6 0 -9 4 -5 10 3 5 -6 27 -20 49 -14 23 -25 45 -25 51
0 5 -6 10 -12 10 -14 0 -48 54 -48 76 0 8 4 14 10 14 5 0 16 15 24 34 8 19 22
37 33 40 17 6 43 48 43 72 0 6 7 17 15 24 8 7 15 21 15 31 0 11 5 19 11 19 5
0 8 -4 4 -9 -8 -14 15 -25 28 -12 8 8 7 18 -3 36 -12 23 -11 27 14 50 15 14
33 25 40 25 24 0 28 31 6 37 -24 6 -26 21 -5 29 20 8 19 30 -1 38 -18 7 -34 0
-34 -15 0 -20 -42 -57 -60 -52 -10 3 -26 1 -36 -5 -16 -9 -15 -11 4 -21 30
-16 28 -27 -5 -28 -54 -1 -55 -2 -49 -28 4 -17 0 -31 -14 -45 -11 -11 -20 -22
-20 -25 0 -3 -10 -15 -21 -26 -16 -16 -23 -18 -29 -9 -11 19 -32 1 -25 -21 5
-15 1 -19 -14 -19 -14 0 -21 -6 -21 -20 0 -36 -26 -19 -57 37 -18 31 -17 37
13 66 14 14 23 31 20 36 -11 18 17 50 49 56 104 20 167 45 112 45 -15 0 -27
-4 -27 -10 0 -5 -7 -10 -15 -10 -8 0 -15 4 -15 9 0 5 7 14 15 21 8 7 15 16 15
21 0 37 114 96 131 67 6 -10 11 -10 21 0 9 9 9 12 -4 12 -28 0 -27 24 3 59 25
31 31 33 66 27 21 -4 45 -7 53 -5 8 1 48 1 89 1 67 0 76 -3 96 -26 25 -29 36
-31 64 -14 15 9 32 9 76 -2 31 -7 58 -17 61 -22 3 -4 21 -8 40 -8 20 0 45 -5
57 -12 12 -6 37 -15 55 -19 33 -7 33 -7 16 12 -9 10 -30 19 -45 19 -15 0 -30
4 -33 9 -3 5 -18 12 -33 15 -16 4 -44 11 -63 16 -19 5 -62 16 -95 24 -33 8
-123 31 -200 51 -77 20 -169 41 -205 46 -36 5 -76 13 -90 18 -14 5 -45 14 -69
21 l-43 11 23 25 c23 25 82 34 94 14 10 -15 35 -12 35 5 0 8 -8 15 -19 15 -10
0 -26 11 -35 25 -9 14 -21 25 -28 25 -6 0 -31 -20 -55 -45 -41 -42 -89 -62
-77 -32 7 19 -18 38 -53 40 -18 2 -29 9 -31 21 -3 15 0 17 14 12 11 -4 31 -10
47 -13 22 -5 27 -2 27 14 0 11 -9 28 -20 38 -11 10 -16 23 -13 29 4 6 -5 3
-20 -6 -14 -10 -31 -18 -37 -18 -15 0 -12 30 4 36 29 11 26 34 -6 54 -17 10
-35 17 -39 14 -4 -2 -10 0 -14 6 -3 5 -12 10 -18 10 -7 0 -4 -7 7 -15 21 -16
15 -45 -8 -45 -8 0 -26 4 -41 10 l-25 10 22 45 c14 27 30 45 41 45 32 0 104
-39 110 -60 3 -12 13 -20 27 -20 25 0 80 -27 80 -39 0 -4 30 -9 66 -10 37 -1
75 -6 85 -12 11 -5 19 -7 19 -3 0 3 6 2 13 -4 6 -5 32 -13 57 -17 25 -4 53
-12 63 -17 25 -13 97 -17 122 -8 16 6 17 9 5 13 -29 8 -145 38 -180 46 -19 4
-78 29 -130 54 -52 25 -153 67 -225 92 -170 60 -165 59 -165 47z m-90 -102 c0
-5 -2 -10 -4 -10 -3 0 -8 5 -11 10 -3 6 -1 10 4 10 6 0 11 -4 11 -10z m148
-147 c5 -18 -23 -16 -39 3 -11 14 -10 15 11 12 13 -1 25 -9 28 -15z m-218
-123 c0 -5 -5 -10 -11 -10 -5 0 -7 5 -4 10 3 6 8 10 11 10 2 0 4 -4 4 -10z
m628 -96 c32 -9 27 -24 -7 -24 -17 0 -33 -4 -36 -10 -3 -5 -15 -10 -25 -10
-10 0 -32 -12 -49 -26 -27 -22 -37 -25 -69 -18 -20 4 -40 7 -44 6 -15 -4 -8
15 15 35 16 15 37 21 76 21 30 1 57 5 60 10 12 19 44 25 79 16z m-291 -283 c0
-11 -5 -18 -9 -15 -4 3 -5 11 -1 19 7 21 12 19 10 -4z m-17 -60 c0 -6 -4 -13
-10 -16 -5 -3 -10 1 -10 9 0 9 5 16 10 16 6 0 10 -4 10 -9z m-1441 -155 c9
-11 8 -15 -5 -20 -26 -10 -32 -7 -27 14 6 23 16 25 32 6z m29 -52 c2 -1 -6 -7
-17 -14 -24 -12 -41 -6 -41 16 0 11 7 13 28 8 15 -4 29 -8 30 -10z m1692 -339
c0 -8 -4 -15 -10 -15 -5 0 -10 7 -10 15 0 8 5 15 10 15 6 0 10 -7 10 -15z"/>
<path d="M5436 3315 c4 -8 8 -15 10 -15 2 0 4 7 4 15 0 8 -4 15 -10 15 -5 0
-7 -7 -4 -15z"/>
<path d="M5432 3271 c-10 -6 -10 -10 2 -20 16 -13 29 -2 18 16 -4 7 -13 8 -20
4z"/>
<path d="M5695 3250 c-8 -13 20 -24 40 -16 8 3 15 10 15 16 0 13 -47 13 -55 0z"/>
<path d="M5644 3209 c-3 -6 -2 -15 4 -21 11 -11 52 6 52 22 0 14 -47 13 -56
-1z"/>
<path d="M4370 3100 c0 -5 5 -10 10 -10 6 0 10 5 10 10 0 6 -4 10 -10 10 -5 0
-10 -4 -10 -10z"/>
<path d="M4351 3054 c0 -11 3 -14 6 -6 3 7 2 16 -1 19 -3 4 -6 -2 -5 -13z"/>
<path d="M2195 3002 c-77 -18 -238 -97 -276 -136 -30 -31 -36 -46 -19 -46 6 0
10 5 10 10 0 6 5 10 11 10 13 0 2 -39 -17 -58 -17 -16 -18 -29 -3 -34 6 -2 5
-14 -5 -33 -9 -17 -16 -36 -16 -43 0 -7 -6 -15 -14 -18 -16 -6 -26 -38 -32
-103 -4 -36 -1 -46 16 -58 12 -9 20 -25 20 -44 0 -16 5 -38 12 -48 10 -17 14
-17 32 -6 12 7 51 16 89 20 37 4 67 10 67 15 0 5 13 11 30 15 16 3 42 21 58
40 16 18 39 36 50 39 11 4 22 16 25 27 6 21 35 23 49 4 4 -5 5 9 3 30 -4 53 8
65 67 65 53 0 104 -21 153 -64 l30 -26 6 28 c3 16 9 34 13 40 9 15 98 12 92
-4 -2 -6 3 -11 12 -10 20 1 29 -41 13 -57 -6 -6 -32 -14 -58 -17 l-47 -5 77
-57 c42 -32 79 -58 83 -58 9 0 -25 52 -45 69 -12 10 -13 14 -3 18 7 3 20 12
28 21 15 15 18 14 33 -3 12 -16 28 -20 71 -20 38 1 59 -4 67 -15 20 -27 22 -6
4 50 -16 48 -25 60 -79 98 -50 35 -62 49 -62 70 0 26 -1 27 -63 27 -40 0 -70
5 -81 14 -9 8 -36 14 -59 13 -63 -2 -136 41 -162 96 -12 23 -31 49 -44 58 -12
9 -34 35 -49 58 l-27 43 -60 -15z m525 -302 c0 -5 -2 -10 -4 -10 -3 0 -8 5
-11 10 -3 6 -1 10 4 10 6 0 11 -4 11 -10z"/>
<path d="M5895 3010 c-3 -5 -1 -10 4 -10 6 0 11 5 11 10 0 6 -2 10 -4 10 -3 0
-8 -4 -11 -10z"/>
<path d="M5820 2990 c0 -5 -11 -10 -25 -10 -30 0 -49 -32 -40 -68 6 -25 7 -26
17 -7 6 11 24 33 39 49 30 29 37 46 19 46 -5 0 -10 -4 -10 -10z"/>
<path d="M6047 2973 c-4 -3 -7 -13 -7 -21 0 -12 3 -12 15 -2 8 7 15 16 15 21
0 11 -14 12 -23 2z"/>
<path d="M5700 2945 c0 -8 5 -15 10 -15 6 0 10 7 10 15 0 8 -4 15 -10 15 -5 0
-10 -7 -10 -15z"/>
<path d="M5855 2940 c3 -5 8 -10 11 -10 2 0 4 5 4 10 0 6 -5 10 -11 10 -5 0
-7 -4 -4 -10z"/>
<path d="M6015 2910 c-7 -12 2 -30 16 -30 5 0 9 9 9 20 0 21 -15 27 -25 10z"/>
<path d="M6445 2890 c3 -5 8 -10 11 -10 2 0 4 5 4 10 0 6 -5 10 -11 10 -5 0
-7 -4 -4 -10z"/>
<path d="M6522 2868 c3 -7 18 -15 34 -18 16 -3 40 -13 54 -22 32 -21 86 -35
76 -20 -8 13 -52 35 -115 57 -53 18 -54 18 -49 3z"/>
<path d="M6715 2790 c3 -5 10 -10 16 -10 5 0 9 5 9 10 0 6 -7 10 -16 10 -8 0
-12 -4 -9 -10z"/>
<path d="M6780 2762 c0 -5 9 -12 21 -15 13 -3 19 -1 16 6 -5 15 -37 22 -37 9z"/>
<path d="M2900 2540 c0 -5 7 -10 16 -10 8 0 12 5 9 10 -3 6 -10 10 -16 10 -5
0 -9 -4 -9 -10z"/>
<path d="M5540 2478 c0 -7 5 -20 10 -28 8 -12 10 -11 10 7 0 12 -4 25 -10 28
-5 3 -10 0 -10 -7z"/>
<path d="M6868 2465 c-10 -13 -18 -33 -18 -44 0 -11 -4 -23 -10 -26 -5 -3 -10
-13 -10 -20 0 -8 -22 -62 -50 -120 -27 -58 -50 -118 -50 -133 1 -22 6 -17 31
33 16 33 36 65 43 70 7 6 16 20 20 33 4 12 18 35 31 50 17 21 25 45 30 105 4
42 6 77 4 77 -2 0 -12 -11 -21 -25z"/>
<path d="M3229 2328 c-12 -23 -12 -23 10 -4 23 21 26 26 11 26 -5 0 -15 -10
-21 -22z"/>
<path d="M4675 2309 c4 -6 -2 -13 -14 -16 -12 -3 -21 -9 -21 -14 0 -12 7 -11
29 1 25 13 35 40 15 40 -8 0 -12 -5 -9 -11z"/>
<path d="M5650 2266 c0 -9 5 -16 10 -16 6 0 10 4 10 9 0 6 -4 13 -10 16 -5 3
-10 -1 -10 -9z"/>
<path d="M6694 2068 c-4 -13 -8 -30 -9 -38 -1 -8 -10 -42 -19 -75 -30 -104
-47 -188 -51 -249 -2 -36 -10 -65 -19 -75 -15 -14 -16 -13 -16 14 0 27 -1 28
-14 9 -8 -10 -12 -30 -9 -45 3 -16 -1 -30 -11 -38 -9 -8 -16 -21 -16 -31 0
-29 -21 -80 -31 -74 -5 3 -9 41 -9 84 0 43 -4 82 -10 85 -6 3 -10 -4 -10 -16
0 -12 -11 -47 -24 -78 -27 -65 -38 -103 -61 -221 -20 -103 -22 -111 -41 -180
-8 -30 -14 -71 -13 -90 2 -20 0 -41 -5 -48 -6 -11 -26 -99 -57 -252 -33 -172
-44 -214 -57 -226 -11 -11 -11 -18 -2 -29 6 -8 8 -19 5 -26 -4 -6 -10 -39 -12
-73 -2 -33 -8 -65 -14 -70 -5 -6 -9 -28 -9 -50 0 -65 -9 -86 -36 -86 -17 0
-27 8 -34 25 -7 17 -17 25 -34 25 -37 0 -46 27 -46 134 0 52 -4 98 -10 101 -6
4 -10 -32 -10 -102 0 -59 -3 -132 -6 -160 l-7 -53 44 5 c46 6 76 -5 65 -24 -4
-6 -22 -12 -39 -12 l-32 -2 30 -4 c75 -11 62 -43 -17 -43 l-48 0 0 -40 0 -41
128 6 c70 3 185 10 256 16 72 5 171 9 222 9 50 0 112 3 136 6 l46 6 15 62 c28
108 30 121 28 133 -1 7 6 27 14 44 42 80 45 111 45 482 l0 358 -21 -11 c-11
-7 -29 -19 -39 -28 -10 -9 -26 -23 -35 -30 -25 -21 -9 -30 40 -24 55 6 58 -7
14 -50 -41 -42 -66 -90 -80 -157 -8 -39 -20 -64 -39 -81 -29 -26 -63 -84 -54
-93 3 -2 -11 -38 -30 -78 -30 -64 -33 -77 -22 -94 11 -17 11 -22 0 -33 -15
-14 -37 -88 -31 -105 2 -7 -2 -18 -10 -25 -7 -8 -11 -18 -8 -23 12 -18 -41
-147 -55 -133 -23 26 -29 103 -18 234 8 102 8 157 -1 228 -13 99 -8 167 13
175 12 5 24 48 32 114 1 12 8 31 13 42 6 11 11 43 11 71 0 28 7 67 15 87 8 19
15 48 15 64 0 15 5 31 10 34 15 9 12 25 -5 25 -22 0 -18 11 15 44 35 34 37 46
10 53 -26 7 -25 17 1 42 12 11 18 24 15 30 -4 6 4 26 18 44 30 39 33 59 9 55
-13 -2 -17 2 -14 17 2 11 4 47 4 80 0 43 4 63 16 72 9 6 13 15 9 19 -4 4 -13
2 -20 -4 -11 -8 -13 -1 -12 38 1 26 5 65 8 86 3 22 8 63 11 93 3 30 9 59 15
66 5 6 7 14 4 17 -3 3 2 23 10 43 9 21 16 44 16 51 0 22 -18 16 -26 -8z m-509
-1898 c3 -5 -1 -10 -10 -10 -9 0 -13 5 -10 10 3 6 8 10 10 10 2 0 7 -4 10 -10z"/>
<path d="M6625 2071 c-3 -5 -1 -12 5 -16 5 -3 10 1 10 9 0 18 -6 21 -15 7z"/>
<path d="M5186 2037 c3 -10 9 -15 12 -12 3 3 0 11 -7 18 -10 9 -11 8 -5 -6z"/>
<path d="M3390 1920 c-8 -5 -27 -10 -42 -10 -35 0 -36 -18 -2 -26 29 -7 74 12
74 33 0 15 -9 16 -30 3z"/>
<path d="M3180 1790 c28 -22 40 -25 40 -10 0 11 -33 30 -52 30 -7 0 -2 -9 12
-20z"/>
<path d="M6563 1743 c-15 -5 -18 -33 -4 -33 13 0 33 28 24 33 -4 2 -14 2 -20
0z"/>
<path d="M3530 1469 c0 -11 4 -18 10 -14 5 3 7 12 3 20 -7 21 -13 19 -13 -6z"/>
<path d="M3537 1384 c-4 -4 -7 -14 -7 -23 0 -11 3 -12 11 -4 6 6 10 16 7 23
-2 6 -7 8 -11 4z"/>
<path d="M3531 1288 c-1 -15 4 -30 9 -33 12 -7 12 12 0 40 -8 18 -9 17 -9 -7z"/>
<path d="M10 1274 c-13 -34 -13 -34 10 -34 21 0 45 34 35 50 -11 19 -35 10
-45 -16z"/>
<path d="M3542 1210 c0 -14 2 -19 5 -12 2 6 2 18 0 25 -3 6 -5 1 -5 -13z"/>
<path d="M3538 1155 c-6 -30 -3 -43 8 -33 3 4 4 19 2 35 l-3 28 -7 -30z"/>
<path d="M3539 1053 c-2 -10 -1 -47 2 -83 l6 -65 1 83 c2 79 -2 102 -9 65z"/>
<path d="M70 1053 c0 -5 6 -18 14 -29 17 -22 35 -11 20 13 -12 19 -34 29 -34
16z"/>
<path d="M120 956 c0 -8 11 -27 25 -42 14 -15 25 -35 25 -46 0 -10 7 -30 16
-43 9 -15 18 -56 21 -105 3 -44 10 -80 16 -80 16 0 2 179 -18 228 -9 23 -21
42 -26 42 -5 0 -9 5 -9 11 0 10 -37 49 -47 49 -1 0 -3 -7 -3 -14z"/>
<path d="M3534 745 c0 -71 1 -99 3 -62 2 37 2 96 0 130 -2 34 -3 4 -3 -68z"/>
<path d="M5670 712 c1 -18 40 -52 80 -69 73 -32 100 -36 107 -17 8 23 -16 43
-73 59 -27 7 -64 18 -81 24 -18 5 -33 7 -33 3z"/>
<path d="M5715 590 c-3 -5 -1 -10 4 -10 6 0 11 5 11 10 0 6 -2 10 -4 10 -3 0
-8 -4 -11 -10z"/>
<path d="M186 562 c-16 -26 -17 -114 -3 -150 9 -22 13 -43 10 -46 -4 -3 -1
-16 5 -29 6 -12 13 -71 15 -132 4 -89 9 -119 28 -157 l24 -48 61 0 60 0 -12
70 c-13 76 -26 100 -55 100 -25 0 -24 -21 2 -71 11 -23 18 -44 14 -47 -3 -3
-8 4 -12 16 -3 12 -9 22 -13 22 -4 0 -17 23 -29 51 -19 44 -21 61 -15 129 6
71 4 83 -20 135 -18 39 -26 74 -26 111 0 40 -4 54 -14 54 -8 0 -17 -4 -20 -8z
m41 -374 c-3 -8 -6 -5 -6 6 -1 11 2 17 5 13 3 -3 4 -12 1 -19z"/>
<path d="M5577 554 c-14 -15 7 -24 54 -24 34 0 48 4 43 11 -3 6 -17 9 -30 6
-14 -2 -27 0 -30 4 -6 10 -28 12 -37 3z"/>
<path d="M5802 551 c-8 -5 -33 -6 -57 -4 -52 6 -69 -12 -22 -25 49 -14 97 -4
97 19 0 22 0 22 -18 10z"/>
<path d="M5004 519 c-6 -11 45 -17 79 -9 29 6 27 7 -21 11 -30 2 -56 1 -58 -2z"/>
<path d="M5813 483 c9 -2 25 -2 35 0 9 3 1 5 -18 5 -19 0 -27 -2 -17 -5z"/>
<path d="M5055 458 c-15 -22 -14 -23 10 -31 31 -11 47 0 22 14 -22 13 -22 26
1 32 15 4 15 5 0 6 -9 0 -24 -9 -33 -21z"/>
<path d="M5776 444 c-8 -20 1 -34 20 -34 16 0 19 -26 4 -35 -6 -3 -7 -17 -4
-31 6 -21 3 -24 -24 -24 -20 0 -35 -8 -46 -24 -8 -14 -25 -27 -36 -31 -11 -3
-20 -14 -20 -24 0 -10 -7 -24 -15 -31 -8 -7 -15 -27 -15 -45 0 -29 4 -33 34
-39 41 -8 71 3 71 27 0 9 5 16 10 15 6 -2 9 -9 9 -15 -1 -7 4 -13 12 -13 8 0
14 7 14 16 0 9 10 29 21 46 18 24 21 43 20 100 -1 39 -4 75 -8 81 -3 6 -6 25
-5 44 1 26 -3 33 -17 33 -10 0 -22 -7 -25 -16z"/>
<path d="M3542 245 c0 -16 2 -22 5 -12 2 9 2 23 0 30 -3 6 -5 -1 -5 -18z"/>
<path d="M6000 120 c0 -5 5 -10 10 -10 6 0 10 5 10 10 0 6 -4 10 -10 10 -5 0
-10 -4 -10 -10z"/>
<path d="M5723 102 c-39 -4 -43 -17 -8 -26 22 -6 24 -10 18 -34 -6 -24 -5 -26
10 -13 10 7 17 20 17 28 0 12 7 14 29 10 32 -7 67 18 40 27 -24 8 -72 11 -106
8z"/>
<path d="M5660 90 c-13 -8 -12 -10 3 -10 9 0 17 5 17 10 0 12 -1 12 -20 0z"/>
</g>
</svg>
